<mxfile host="app.diagrams.net" modified="2022-06-02T08:32:04.952Z" agent="5.0 (Windows NT 10.0; Win64; x64) AppleWebKit/537.36 (KHTML, like Gecko) Chrome/101.0.4951.64 Safari/537.36 Edg/101.0.1210.53" etag="lIBsISA-vK4fdY8XsBM0" version="18.2.0" type="github">
  <diagram id="FNumu-MdkQsG0bbrW5rX" name="第 1 页">
    <mxGraphModel dx="981" dy="574" grid="1" gridSize="10" guides="1" tooltips="1" connect="1" arrows="1" fold="1" page="1" pageScale="1" pageWidth="827" pageHeight="1169" math="0" shadow="0">
      <root>
        <mxCell id="0" />
        <mxCell id="1" parent="0" />
        <mxCell id="DDl9VNaN8lpR-ARsxnNi-3" value="" style="edgeStyle=orthogonalEdgeStyle;rounded=0;orthogonalLoop=1;jettySize=auto;html=1;" parent="1" source="DDl9VNaN8lpR-ARsxnNi-1" target="DDl9VNaN8lpR-ARsxnNi-2" edge="1">
          <mxGeometry relative="1" as="geometry" />
        </mxCell>
        <mxCell id="DDl9VNaN8lpR-ARsxnNi-1" value="react-native-code-push" style="rounded=0;whiteSpace=wrap;html=1;fillColor=#f5f5f5;fontColor=#333333;strokeColor=#666666;" parent="1" vertex="1">
          <mxGeometry x="310" y="380" width="120" height="60" as="geometry" />
        </mxCell>
        <mxCell id="DDl9VNaN8lpR-ARsxnNi-5" value="" style="edgeStyle=orthogonalEdgeStyle;rounded=0;orthogonalLoop=1;jettySize=auto;html=1;" parent="1" source="DDl9VNaN8lpR-ARsxnNi-2" target="DDl9VNaN8lpR-ARsxnNi-4" edge="1">
          <mxGeometry relative="1" as="geometry" />
        </mxCell>
        <mxCell id="DDl9VNaN8lpR-ARsxnNi-7" value="" style="edgeStyle=orthogonalEdgeStyle;rounded=0;orthogonalLoop=1;jettySize=auto;html=1;" parent="1" source="DDl9VNaN8lpR-ARsxnNi-2" target="DDl9VNaN8lpR-ARsxnNi-6" edge="1">
          <mxGeometry relative="1" as="geometry" />
        </mxCell>
        <mxCell id="DDl9VNaN8lpR-ARsxnNi-2" value="" style="rhombus;whiteSpace=wrap;html=1;rounded=0;" parent="1" vertex="1">
          <mxGeometry x="330" y="510" width="80" height="80" as="geometry" />
        </mxCell>
        <mxCell id="DDl9VNaN8lpR-ARsxnNi-4" value="js调整，图片资源调整&lt;br&gt;可用" style="whiteSpace=wrap;html=1;rounded=0;" parent="1" vertex="1">
          <mxGeometry x="150" y="520" width="120" height="60" as="geometry" />
        </mxCell>
        <mxCell id="DDl9VNaN8lpR-ARsxnNi-6" value="原生代码调整，如修改了java，新增了插件&lt;br&gt;不可用" style="whiteSpace=wrap;html=1;rounded=0;" parent="1" vertex="1">
          <mxGeometry x="470" y="520" width="120" height="60" as="geometry" />
        </mxCell>
      </root>
    </mxGraphModel>
  </diagram>
</mxfile>
